<mxfile host="app.diagrams.net" modified="2024-05-05T09:31:38.293Z" agent="Mozilla/5.0 (Windows NT 10.0; Win64; x64) AppleWebKit/537.36 (KHTML, like Gecko) Chrome/124.0.0.0 Safari/537.36" version="24.3.1" etag="jSWpitbh2Xst2l7kizGZ" type="github">
  <diagram name="Page-1" id="TuDSuHo26Y--UJRAe4W-">
    <mxGraphModel>
      <root>
        <mxCell id="0" />
        <mxCell id="1" parent="0" />
      </root>
    </mxGraphModel>
  </diagram>
</mxfile>
